<?xml version="1.0" encoding="UTF-8" standalone="no"?>
<svg
   xmlns:dc="http://purl.org/dc/elements/1.1/"
   xmlns:cc="http://creativecommons.org/ns#"
   xmlns:rdf="http://www.w3.org/1999/02/22-rdf-syntax-ns#"
   xmlns:svg="http://www.w3.org/2000/svg"
   xmlns="http://www.w3.org/2000/svg"
   xmlns:sodipodi="http://sodipodi.sourceforge.net/DTD/sodipodi-0.dtd"
   xmlns:inkscape="http://www.inkscape.org/namespaces/inkscape"
   version="1.1"
   width="512"
   height="512"
   viewBox="0 0 512 512"
   style="overflow:visible"
   xml:space="preserve"
   id="svg2"
   sodipodi:version="0.32"
   inkscape:version="0.91 r"
   sodipodi:docname="ubuntu-start-here.svg"
   inkscape:output_extension="org.inkscape.output.svg.inkscape"><metadata
     id="metadata51"><rdf:RDF><cc:Work
         rdf:about=""><dc:format>image/svg+xml</dc:format><dc:type
           rdf:resource="http://purl.org/dc/dcmitype/StillImage" /><dc:title /></cc:Work></rdf:RDF></metadata><defs
     id="defs49"><inkscape:perspective
       sodipodi:type="inkscape:persp3d"
       inkscape:vp_x="0 : 64 : 1"
       inkscape:vp_y="0 : 1000 : 0"
       inkscape:vp_z="128 : 64 : 1"
       inkscape:persp3d-origin="64 : 42.666667 : 1"
       id="perspective53" /></defs><sodipodi:namedview
     inkscape:window-height="1026"
     inkscape:window-width="959"
     inkscape:pageshadow="2"
     inkscape:pageopacity="0.0"
     guidetolerance="10.0"
     gridtolerance="10.0"
     objecttolerance="10.0"
     borderopacity="1.0"
     bordercolor="#666666"
     pagecolor="#ffffff"
     id="base"
     showgrid="false"
     inkscape:zoom="0.31659338"
     inkscape:cx="234.76252"
     inkscape:cy="-0.16112524"
     inkscape:window-x="960"
     inkscape:window-y="27"
     inkscape:current-layer="svg2"
     inkscape:window-maximized="0" /><path
     style="fill:#e04b26;fill-opacity:1;stroke-width:3.66606522"
     d="m 481.0003,392.47626 a 45.546558,46.143673 0 0 0 -45.54687,-46.14258 45.546558,46.143673 0 0 0 -45.54688,46.14258 45.546558,46.143673 0 0 0 45.54688,46.14453 45.546558,46.143673 0 0 0 45.54687,-46.14453 z m -35.65039,-97.42773 c -0.004,-28.44236 -7.06045,-57.18087 -19.71875,-83.11133 -0.45182,-0.92214 -1.26957,-1.60813 -2.24609,-1.88477 -0.97651,-0.28033 -2.02094,-0.12598 -2.88086,0.41993 l -58.51563,37.33593 c -1.48664,0.94796 -2.07591,2.84688 -1.39453,4.48829 5.78259,13.84679 8.71484,28.23384 8.71484,42.75195 0,53.40273 -39.11205,99.98444 -90.98047,108.35742 -1.7417,0.28033 -3.01953,1.80047 -3.01953,3.58203 l -0.10547,70.37695 c 0,1.02541 0.42519,2.0036 1.17579,2.69336 0.75061,0.68976 1.74486,1.02169 2.75781,0.92579 38.48502,-3.79184 75.60853,-20.37561 104.52148,-46.69336 1.31174,-1.18771 1.57354,-3.16869 0.61524,-4.66993 -6.77004,-10.61193 -10.35547,-22.66614 -10.35547,-34.8457 0,-35.53172 28.38451,-64.43576 63.26953,-64.43945 0.0182,0.004 1.33428,0.0703 1.39258,0.0703 1.73805,0 3.23442,-1.26509 3.5332,-3.00977 1.90203,-11.10989 3.23633,-21.99022 3.23633,-32.34765 z M 407.27374,182.85517 c -0.0258,-0.75592 -0.28229,-1.49344 -0.74414,-2.09375 -23.20323,-30.49687 -55.85148,-53.42092 -91.93164,-64.55664 -1.41012,-0.43524 -2.93921,0.0441 -3.85743,1.2207 -11.9915,15.3259 -30.45197,24.47461 -49.38476,24.47461 -18.9328,0 -37.39913,-9.15284 -49.39063,-24.48242 -0.91457,-1.16927 -2.43975,-1.65595 -3.85351,-1.2207 -35.77773,11.04718 -68.24035,33.71334 -91.39258,63.83398 -0.62308,0.80779 -0.87803,1.84089 -0.70313,2.85156 0.17127,1.00697 0.75844,1.89572 1.60743,2.44531 l 58.3789,37.65626 c 1.49028,0.9627 3.45147,0.68225 4.6211,-0.66407 20.54696,-23.63987 49.97379,-37.19531 80.73047,-37.19531 30.98624,0 60.5434,13.70089 81.09765,37.58789 1.16235,1.34632 3.11962,1.64088 4.61719,0.68555 l 58.53516,-37.34766 c 0.85263,-0.5459 1.44424,-1.43053 1.61914,-2.4375 0.0437,-0.25174 0.0594,-0.50584 0.0508,-0.75781 z M 307.11358,78.224308 a 46.617813,47.224419 0 0 0 -46.61719,-47.224609 46.617813,47.224419 0 0 0 -46.61718,47.224609 46.617813,47.224419 0 0 0 46.61718,47.224612 46.617813,47.224419 0 0 0 46.61719,-47.224612 z m -60.16016,399.066412 -0.22656,-70.36914 c -0.004,-1.77419 -1.28264,-3.2902 -3.00976,-3.57422 -51.48219,-8.48732 -90.30664,-55.04365 -90.30664,-108.29883 0,-14.68778 3.00303,-29.23657 8.92773,-43.23828 0.68867,-1.63771 0.10852,-3.53339 -1.36719,-4.4961 l -58.35351,-37.63476 c -0.85627,-0.54959 -1.90266,-0.70655 -2.882809,-0.4336 -0.97652,0.27295 -1.79623,0.9546 -2.24805,1.87305 -12.92429,26.13333 -19.75196,55.15905 -19.75195,83.92969 0,10.67096 0.99554,21.78294 2.96679,33.02929 0.27328,1.57871 1.54479,2.78845 3.11524,2.97657 31.973679,3.74756 56.087889,31.14351 56.087889,63.7207 0,10.09922 -2.5438,20.37545 -7.35352,29.71484 -0.73239,1.42009 -0.46328,3.1504 0.66992,4.27539 29.67085,29.45302 68.65453,47.98082 109.78125,52.15626 1.00931,0.10327 2.01528,-0.23235 2.76953,-0.92579 0.75425,-0.69345 1.18529,-1.67965 1.18164,-2.70507 z M 123.75421,394.26923 a 46.377327,47.224419 0 0 0 -46.376959,-47.22461 46.377327,47.224419 0 0 0 -46.37695,47.22461 46.377327,47.224419 0 0 0 46.37695,47.22461 46.377327,47.224419 0 0 0 46.376959,-47.22461 z"
     id="path10"
     inkscape:connector-curvature="0" /><linearGradient
     id="XMLID_3_"
     gradientUnits="userSpaceOnUse"
     x1="75.503899"
     y1="11.96"
     x2="85.596901"
     y2="36.3307"><stop
       offset="0"
       style="stop-color:#F99D77"
       id="stop33" /><stop
       offset="1"
       style="stop-color:#F7804E"
       id="stop35" /></linearGradient><linearGradient
     id="XMLID_4_"
     gradientUnits="userSpaceOnUse"
     x1="37.674301"
     y1="25.6035"
     x2="37.674301"
     y2="47.500599"><stop
       offset="0"
       style="stop-color:#FCB462"
       id="stop40" /><stop
       offset="1"
       style="stop-color:#FCAF55"
       id="stop42" /></linearGradient></svg>